<?xml version="1.0" encoding="UTF-8" standalone="no"?>
<!-- Created with Inkscape (http://www.inkscape.org/) -->

<svg
   width="92.598907mm"
   height="21.703388mm"
   viewBox="0 0 92.598907 21.703388"
   version="1.1"
   id="svg1"
   xml:space="preserve"
   inkscape:export-filename="driftcove.svg"
   inkscape:export-xdpi="96"
   inkscape:export-ydpi="96"
   sodipodi:docname="driftcove_light.svg"
   xmlns:inkscape="http://www.inkscape.org/namespaces/inkscape"
   xmlns:sodipodi="http://sodipodi.sourceforge.net/DTD/sodipodi-0.dtd"
   xmlns="http://www.w3.org/2000/svg"
   xmlns:svg="http://www.w3.org/2000/svg"><sodipodi:namedview
     id="namedview1"
     pagecolor="#ffffff"
     bordercolor="#000000"
     borderopacity="0.25"
     inkscape:showpageshadow="2"
     inkscape:pageopacity="0.0"
     inkscape:pagecheckerboard="0"
     inkscape:deskcolor="#d1d1d1"
     inkscape:document-units="mm"><inkscape:page
       x="0"
       y="0"
       width="92.598907"
       height="21.703386"
       id="page2"
       margin="0"
       bleed="0" /></sodipodi:namedview><defs
     id="defs1" /><g
     inkscape:label="Layer 1"
     inkscape:groupmode="layer"
     id="layer1"
     transform="translate(-41.951444,-63.072834)"><path
       id="rect24"
       style="opacity:1;fill:#5296c0;stroke-width:0.853921;stroke-linecap:round;stroke-linejoin:round"
       d="M 41.951444,66.792306 V 84.776221 H 54.518119 V 66.792306 Z m 1.440223,2.947106 h 3.725354 c 1.219198,0 2.274911,0.225407 3.166731,0.676962 0.89182,0.451554 1.580086,1.117796 2.065507,1.998327 0.485422,0.869243 0.728121,1.952745 0.728121,3.250965 0,1.354664 -0.253712,2.489528 -0.76171,3.403926 -0.496711,0.914398 -1.213797,1.602663 -2.150773,2.065507 -0.936976,0.462844 -2.071324,0.694532 -3.40341,0.694532 h -3.36982 z m 1.523938,1.303797 v 9.482625 h 1.642793 c 1.636886,0 2.861396,-0.401001 3.674195,-1.20251 0.824087,-0.812799 1.2361,-2.014769 1.2361,-3.606499 0,-1.072442 -0.180325,-1.953078 -0.541569,-2.641699 -0.349955,-0.688621 -0.869423,-1.196561 -1.558044,-1.523938 -0.677332,-0.338666 -1.501359,-0.507979 -2.472201,-0.507979 z" /><path
       style="font-size:16.9333px;font-family:Emmentaler-Brace;-inkscape-font-specification:Emmentaler-Brace;fill:#1c2549;stroke-width:0.265;stroke-dasharray:none"
       d="m 108.99123,72.583962 q 1.1684,0 1.99813,0.507999 0.84667,0.507999 1.28693,1.439331 0.4572,0.914398 0.4572,2.150529 v 0.897465 h -6.21452 q 0.0339,1.54093 0.77893,2.353728 0.762,0.795866 2.11667,0.795866 0.8636,0 1.52399,-0.1524 0.67734,-0.169333 1.38853,-0.474133 v 1.303865 q -0.69426,0.304799 -1.37159,0.440265 -0.67733,0.1524 -1.60867,0.1524 -1.28693,0 -2.28599,-0.524932 -0.98213,-0.524933 -1.54093,-1.557864 -0.54187,-1.049864 -0.54187,-2.556928 0,-1.490131 0.49107,-2.556928 0.508,-1.066798 1.40546,-1.642531 0.9144,-0.575732 2.11666,-0.575732 z m -0.0169,1.219198 q -1.0668,0 -1.69333,0.694265 -0.6096,0.677332 -0.72813,1.89653 h 4.62279 q 0,-0.778932 -0.23707,-1.354664 -0.23706,-0.575732 -0.72813,-0.897465 -0.47413,-0.338666 -1.23613,-0.338666 z"
       id="path23" /><path
       style="font-size:16.9333px;font-family:Emmentaler-Brace;-inkscape-font-specification:Emmentaler-Brace;fill:#1c2549;stroke-width:0.264583"
       d="m 98.882063,81.829544 -3.43746,-9.076249 h 1.59173 l 1.930396,5.350923 q 0.135467,0.372533 0.287866,0.829732 0.1524,0.457199 0.270933,0.880531 0.118533,0.4064 0.169333,0.694266 h 0.06773 q 0.06773,-0.287866 0.186267,-0.711199 0.135472,-0.423332 0.287872,-0.880532 0.16933,-0.457199 0.28786,-0.812798 l 1.9304,-5.350923 h 1.59173 l -3.45439,9.076249 z"
       id="path22" /><path
       style="font-size:16.9333px;font-family:Emmentaler-Brace;-inkscape-font-specification:Emmentaler-Brace;fill:#1c2549;stroke-width:0.264583"
       d="m 94.868887,77.274486 q 0,1.134531 -0.304799,2.015063 -0.287866,0.863598 -0.846665,1.473197 -0.541866,0.609599 -1.337731,0.931332 -0.778932,0.304799 -1.74413,0.304799 -0.897465,0 -1.659463,-0.304799 -0.761999,-0.321733 -1.320797,-0.931332 -0.558799,-0.609599 -0.880532,-1.473197 -0.304799,-0.880532 -0.304799,-2.015063 0,-1.507063 0.507999,-2.539995 0.507999,-1.049864 1.456263,-1.59173 0.948265,-0.558799 2.252129,-0.558799 1.236131,0 2.167463,0.558799 0.948264,0.541866 1.473197,1.59173 0.541865,1.032932 0.541865,2.539995 z m -6.857986,0 q 0,1.066798 0.270933,1.862663 0.287866,0.778932 0.880531,1.202265 0.592666,0.423332 1.507064,0.423332 0.914398,0 1.507064,-0.423332 0.592665,-0.423333 0.863598,-1.202265 0.287866,-0.795865 0.287866,-1.862663 0,-1.083731 -0.287866,-1.845729 -0.287866,-0.761999 -0.880532,-1.168398 -0.575732,-0.423333 -1.507063,-0.423333 -1.388531,0 -2.015063,0.914399 -0.626532,0.914398 -0.626532,2.523061 z"
       id="path21" /><path
       style="font-size:16.9333px;font-family:Emmentaler-Brace;-inkscape-font-specification:Emmentaler-Brace;fill:#1c2549;stroke-width:0.264583"
       d="m 82.490654,81.998877 q -1.202265,0 -2.150529,-0.491066 -0.931332,-0.491065 -1.473198,-1.523997 -0.524932,-1.032931 -0.524932,-2.641594 0,-1.676397 0.558799,-2.726262 0.558799,-1.049864 1.507064,-1.54093 0.965198,-0.491066 2.184395,-0.491066 0.694266,0 1.337731,0.1524 0.643466,0.135466 1.049865,0.338666 l -0.457199,1.236131 q -0.4064,-0.1524 -0.948265,-0.287866 -0.541866,-0.135467 -1.015998,-0.135467 -0.914398,0 -1.507064,0.389466 -0.592665,0.389466 -0.880531,1.151465 -0.287867,0.761998 -0.287867,1.896529 0,1.083731 0.287867,1.84573 0.287866,0.761998 0.863598,1.151464 0.575732,0.389466 1.43933,0.389466 0.745066,0 1.303864,-0.152399 0.575733,-0.1524 1.049865,-0.372533 v 1.320797 q -0.457199,0.237067 -1.015998,0.3556 -0.541866,0.135466 -1.320797,0.135466 z"
       id="path20" /><path
       style="font-size:16.9333px;font-family:Emmentaler-Brace;-inkscape-font-specification:Emmentaler-Brace;fill:#1c2549;stroke-width:0.264583"
       d="m 75.768132,80.779679 q 0.338666,0 0.694265,-0.0508 0.3556,-0.06773 0.575733,-0.135467 v 1.134531 q -0.237067,0.118533 -0.677332,0.186267 -0.440266,0.08467 -0.846665,0.08467 -0.711199,0 -1.320798,-0.237066 -0.592665,-0.254 -0.965198,-0.863598 -0.372532,-0.609599 -0.372532,-1.710264 V 73.90476 h -1.286931 v -0.711199 l 1.303864,-0.592665 0.592665,-1.930397 h 0.880532 v 2.082796 h 2.624661 v 1.151465 h -2.624661 v 5.249323 q 0,0.829731 0.389466,1.236131 0.406399,0.389465 1.032931,0.389465 z"
       id="path19" /><path
       style="font-size:16.9333px;font-family:Emmentaler-Brace;-inkscape-font-specification:Emmentaler-Brace;fill:#1c2549;stroke-width:0.264583"
       d="m 71.094542,73.90476 h -2.285995 v 7.924784 H 67.318416 V 73.90476 h -1.59173 v -0.694266 l 1.59173,-0.507999 v -0.524932 q 0,-1.168398 0.338666,-1.89653 0.3556,-0.728131 1.015998,-1.066797 0.660399,-0.338666 1.591731,-0.338666 0.541865,0 0.982131,0.101599 0.457199,0.08467 0.778932,0.2032 l -0.389466,1.168398 q -0.270933,-0.08467 -0.626532,-0.169333 -0.355599,-0.08467 -0.728132,-0.08467 -0.745065,0 -1.117598,0.507999 -0.355599,0.491066 -0.355599,1.557864 v 0.592665 h 2.285995 z"
       id="path18" /><path
       style="font-size:16.9333px;font-family:Emmentaler-Brace;-inkscape-font-specification:Emmentaler-Brace;fill:#1c2549;stroke-width:0.264583"
       d="m 63.305234,69.349702 q 0.338666,0 0.592665,0.237066 0.270933,0.220133 0.270933,0.711199 0,0.474132 -0.270933,0.711198 -0.253999,0.237067 -0.592665,0.237067 -0.372533,0 -0.626532,-0.237067 -0.254,-0.237066 -0.254,-0.711198 0,-0.491066 0.254,-0.711199 0.253999,-0.237066 0.626532,-0.237066 z"
       id="path17" /><path
       style="font-size:16.9333px;font-family:Emmentaler-Brace;-inkscape-font-specification:Emmentaler-Brace;fill:#1c2549;stroke-width:0.264583"
       d="m 64.033366,72.753295 v 9.076249 h -1.490131 v -9.076249 z"
       id="path16" /><path
       style="font-size:16.9333px;font-family:Emmentaler-Brace;-inkscape-font-specification:Emmentaler-Brace;fill:#1c2549;stroke-width:0.264583"
       d="m 59.783106,72.583962 q 0.254,0 0.541866,0.03387 0.304799,0.01693 0.524932,0.06773 l -0.186266,1.371597 q -0.220133,-0.0508 -0.491066,-0.08467 -0.253999,-0.03387 -0.491066,-0.03387 -0.524932,0 -0.999064,0.220133 -0.474133,0.220133 -0.846665,0.626532 -0.372533,0.389466 -0.592666,0.948265 -0.203199,0.558799 -0.203199,1.253064 v 4.842924 h -1.490131 v -9.076249 h 1.219198 l 0.169333,1.659464 h 0.06773 q 0.287866,-0.507999 0.694265,-0.914399 0.4064,-0.423332 0.931332,-0.660398 0.524932,-0.254 1.151464,-0.254 z"
       id="path15" /><g
       id="layer2"
       inkscape:label="Layer 2"><rect
         style="opacity:1;fill:#5296c0;fill-opacity:1;stroke:none;stroke-width:0.499999;stroke-linecap:round;stroke-linejoin:round;stroke-dasharray:none;stroke-opacity:1"
         id="rect34"
         width="17.17931"
         height="10.855151"
         x="116.72104"
         y="71.464371" /><path
         id="rect9"
         style="opacity:1;fill:none;stroke:#1c2549;stroke-width:1.3;stroke-linecap:round;stroke-linejoin:round;stroke-dasharray:none;stroke-opacity:1"
         d="m 116.72104,71.464371 h 17.17931 v 10.855151 h -17.17931 z" /><path
         id="path14"
         style="opacity:1;fill:none;fill-opacity:1;stroke:#1c2549;stroke-width:1.3;stroke-linecap:round;stroke-linejoin:round;stroke-dasharray:none;stroke-opacity:1"
         d="m 125.31133,63.862347 -1.9e-4,1.345779 m -2e-4,4e-6 a 1.4798275,1.4818433 0 0 1 1.3672,0.914767 1.4798275,1.4818433 0 0 1 -0.3208,1.614896 1.4798275,1.4818433 0 0 1 -1.61269,0.321225 1.4798275,1.4818433 0 0 1 -0.91353,-1.369044" /><path
         style="fill:none;fill-opacity:1;stroke:#1c2549;stroke-width:1.3;stroke-linejoin:round;stroke-dasharray:none;stroke-opacity:1"
         d="m 118.03334,71.429021 7.20989,-3.257682 7.34219,3.3569"
         id="path7-2" /><path
         style="opacity:1;fill:#5296c0;fill-opacity:1;stroke:#1c2549;stroke-width:1.3;stroke-linecap:square;stroke-linejoin:round;stroke-dasharray:none;stroke-opacity:1"
         d="m 124.62604,73.957745 h 1.3693 v 5.868402"
         id="path34"
         sodipodi:nodetypes="ccc" /><path
         style="fill:#5296c0;fill-opacity:1;stroke:#1c2549;stroke-width:1.3;stroke-linecap:square;stroke-linejoin:round;stroke-dasharray:none;stroke-opacity:1"
         d="m 119.626,73.957745 h 1.3693 v 5.868402"
         id="path34-2"
         sodipodi:nodetypes="ccc" /><path
         style="fill:#5296c0;fill-opacity:1;stroke:#1c2549;stroke-width:1.3;stroke-linecap:square;stroke-linejoin:round;stroke-dasharray:none;stroke-opacity:1"
         d="m 129.626,73.957745 h 1.3693 v 5.868402"
         id="path34-2-4"
         sodipodi:nodetypes="ccc" /><path
         style="opacity:1;fill:#5296c0;fill-opacity:1;stroke:#1c2549;stroke-width:1.3;stroke-linecap:square;stroke-linejoin:round;stroke-dasharray:none;stroke-opacity:1"
         d="M 125.3107,64.533045 V 63.722834"
         id="path35" /></g></g></svg>
